<?xml version="1.0" encoding="utf-8"?>
<!-- Generator: Adobe Illustrator 20.1.0, SVG Export Plug-In . SVG Version: 6.00 Build 0)  -->
<svg version="1.1" id="Layer_1" xmlns="http://www.w3.org/2000/svg" xmlns:xlink="http://www.w3.org/1999/xlink" x="0px" y="0px"
	 viewBox="0 0 144 146.2" style="enable-background:new 0 0 144 146.2;" xml:space="preserve">
<style type="text/css">
	.st0{fill:#888888;}
	.st1{fill:#2E2E2E;}
	.st2{fill:#FFFFFF;}
</style>
<path class="st0" d="M16.2,72.9c0,0.1,0,0.2,0,0.3c0,0.5,0,1,0,1.5L16.2,72.9L16.2,72.9z"/>
<g>
	<circle class="st1" cx="71.9" cy="73.7" r="70.7"/>
	<g>
		<path class="st2" d="M90.7,111.4c0,2.1-1.7,3.8-3.8,3.8H56.8c-2.1,0-3.8-1.7-3.8-3.8v-7.5c0-2.1,1.7-3.8,3.8-3.8h3.8V77.5h-3.8
			c-2.1,0-3.8-1.7-3.8-3.8v-7.5c0-2.1,1.7-3.8,3.8-3.8h22.6c2.1,0,3.8,1.7,3.8,3.8v33.9H87c2.1,0,3.8,1.7,3.8,3.8V111.4z M83.2,47.3
			c0,2.1-1.7,3.8-3.8,3.8H64.4c-2.1,0-3.8-1.7-3.8-3.8V36c0-2.1,1.7-3.8,3.8-3.8h15.1c2.1,0,3.8,1.7,3.8,3.8V47.3z"/>
	</g>
</g>
</svg>
