<?xml version="1.0" encoding="utf-8"?>
<!-- Generator: Adobe Illustrator 20.0.0, SVG Export Plug-In . SVG Version: 6.00 Build 0)  -->
<svg version="1.1" id="Layer_1" xmlns="http://www.w3.org/2000/svg" xmlns:xlink="http://www.w3.org/1999/xlink" x="0px" y="0px"
	 viewBox="0 0 359.3 74.1" style="enable-background:new 0 0 359.3 74.1;" xml:space="preserve">
<style type="text/css">
	.st0{fill:#A0A0A0;}
</style>
<polygon points="109.8,1.5 88.9,56.4 68,1.6 51,68.9 56.7,68.9 69.1,20.2 88.9,72.4 108.7,20.3 121,68.9 126.9,68.9 "/>
<g>
	<path d="M187,37.4c0,7.9-2.5,14.4-7.4,19.3c-5,4.9-11.5,7.4-19.3,7.4c-7.8,0-14.3-2.5-19.2-7.5c-4.9-4.9-7.4-11.4-7.4-19.2
		c0-7.8,2.5-14.3,7.5-19.3c5-5,11.4-7.5,19.2-7.5c7.8,0,14.3,2.5,19.3,7.5C184.5,23.1,187,29.5,187,37.4 M160.2,5
		c-9.5,0-17.3,3.1-23.3,9.1c-6,6-9,13.8-9,23.3c0,9.5,3.1,17.3,9.1,23.3c6,6,13.8,9,23.3,9s17.3-3.1,23.3-9.1c6-6,9.1-13.8,9.1-23.2
		c0-9.5-3.1-17.3-9.1-23.3C177.4,8.1,169.6,5,160.2,5"/>
</g>
<polygon points="228.7,5.9 213.4,53.6 198.3,5.9 192.5,5.9 213.4,72.4 234.6,5.9 "/>
<polygon points="240.6,68.9 271.9,68.9 271.9,63.2 246.2,63.2 246.2,37.4 271.9,37.4 271.9,31.5 246.2,31.5 246.2,11.5 271.9,11.5 
	271.9,5.9 240.6,5.9 "/>
<polygon points="307.1,5.9 274.5,5.9 274.5,11.5 288,11.5 288,68.9 293.6,68.9 293.6,11.5 307.1,11.5 "/>
<path d="M315.1,45L326,16.9L336.8,45H315.1z M300.1,68.9h5.7l7.1-18.2h26.2l7,18.2h5.8L325.9,2L300.1,68.9z"/>
<polygon class="st0" points="29.7,68.9 35.4,68.9 47.8,20.2 54.1,36.9 56.4,27.1 46.7,1.6 "/>
<polygon class="st0" points="8.4,68.9 14.1,68.9 26.5,20.2 32.9,36.9 35.2,27.1 25.4,1.6 "/>
</svg>
