<?xml version="1.0" encoding="utf-8"?>
<!-- Generator: Adobe Illustrator 20.1.0, SVG Export Plug-In . SVG Version: 6.00 Build 0)  -->
<svg version="1.1" id="Layer_1" xmlns="http://www.w3.org/2000/svg" xmlns:xlink="http://www.w3.org/1999/xlink" x="0px" y="0px"
	 viewBox="0 0 12 12" style="enable-background:new 0 0 12 12;" xml:space="preserve">
<style type="text/css">
	.st0{fill:#FFFFFF;}
</style>
<path class="st0" d="M11,12H1c-0.5,0-1-0.4-1-1V6.5c0-0.5,0.4-1,1-1h10c0.5,0,1,0.4,1,1V11C12,11.6,11.6,12,11,12z"/>
<g>
	<path class="st0" d="M6.2,2C7.7,2,9,3.3,9,4.8v1.5c0,1.5-1.3,2.8-2.8,2.8H5.8C4.3,9.1,3,7.8,3,6.3V4.8C3,3.3,4.3,2,5.8,2H6.2
		 M6.2,0H5.8C3.1,0,1,2.1,1,4.8v1.5c0,2.6,2.1,4.8,4.8,4.8h0.4C8.8,11.1,11,9,11,6.3V4.8C11,2.1,8.9,0,6.2,0L6.2,0z"/>
</g>
</svg>
