<?xml version="1.0" encoding="utf-8"?>
<!-- Generator: Adobe Illustrator 19.2.1, SVG Export Plug-In . SVG Version: 6.00 Build 0)  -->
<svg version="1.1" id="Layer_1" xmlns="http://www.w3.org/2000/svg" xmlns:xlink="http://www.w3.org/1999/xlink" x="0px" y="0px"
	 viewBox="0 0 20 17" style="enable-background:new 0 0 20 17;" xml:space="preserve">
<path d="M19,12h-2v3h-1v-3h-2v3h-1v-3h-2v3h-1v-3H8v3H7v-3H5v1v2H4v-2H2v-1h2h1v-2H2V9h3V7H2V6h3V4H2V3h3V1c0-0.6-0.4-1-1-1H1
	C0.4,0,0,0.4,0,1v15c0,0.6,0.4,1,1,1h18c0.6,0,1-0.4,1-1v-3C20,12.4,19.6,12,19,12z"/>
<polygon points="6,0 6,1 19,1 19,11 20,11 20,0 "/>
</svg>
