<?xml version="1.0" encoding="utf-8"?>
<!-- Generator: Adobe Illustrator 20.1.0, SVG Export Plug-In . SVG Version: 6.00 Build 0)  -->
<svg version="1.1" id="Layer_1" xmlns="http://www.w3.org/2000/svg" xmlns:xlink="http://www.w3.org/1999/xlink" x="0px" y="0px"
	 viewBox="0 0 36 12" style="enable-background:new 0 0 36 12;" xml:space="preserve">
<style type="text/css">
	.st0{fill:#C7C8CA;}
	.st1{fill:#B4B4B4;}
	.st2{fill:#FF3236;}
</style>
<path class="st0" d="M8.4,0C7.5,0,6.6,0.3,6,0.9C5.4,0.3,4.5,0,3.6,0C1.6,0,0,1.6,0,3.6c0,0.9,0.3,2.6,1.2,3.5C1.9,7.8,6,12,6,12
	s4.2-4.2,4.8-4.9C11.7,6.3,12,4.7,12,3.8V3.7C12,1.6,10.4,0,8.4,0z"/>
<path class="st1" d="M20.4,0c-0.9,0-1.8,0.3-2.4,0.9C17.4,0.3,16.5,0,15.6,0c-2,0-3.6,1.6-3.6,3.6c0,0.9,0.3,2.6,1.2,3.5
	C13.9,7.8,18,12,18,12s4.2-4.2,4.8-4.9C23.7,6.3,24,4.7,24,3.8V3.7C24,1.6,22.4,0,20.4,0z"/>
<path class="st2" d="M32.4,0c-0.9,0-1.8,0.3-2.4,0.9C29.4,0.3,28.5,0,27.6,0c-2,0-3.6,1.6-3.6,3.6c0,0.9,0.3,2.6,1.2,3.5
	C25.9,7.8,30,12,30,12s4.2-4.2,4.8-4.9C35.7,6.3,36,4.7,36,3.8V3.7C36,1.6,34.4,0,32.4,0z"/>
</svg>
