<?xml version="1.0" encoding="utf-8"?>
<!-- Generator: Adobe Illustrator 20.1.0, SVG Export Plug-In . SVG Version: 6.00 Build 0)  -->
<svg version="1.1" id="Layer_1" xmlns="http://www.w3.org/2000/svg" xmlns:xlink="http://www.w3.org/1999/xlink" x="0px" y="0px"
	 viewBox="0 0 12 12" style="enable-background:new 0 0 12 12;" xml:space="preserve">
<style type="text/css">
	.st0{fill:#FFFFFF;}
</style>
<title>Search-Icon</title>
<g>
	<path class="st0" d="M7.2,2C8.7,2,10,3.3,10,4.8S8.7,7.7,7.1,7.7c-1.6,0-2.8-1.3-2.8-2.8C4.3,3.3,5.6,2,7.2,2 M7.2,0
		C4.5,0,2.3,2.2,2.3,4.8s2.2,4.8,4.8,4.8c2.7,0,4.8-2.2,4.8-4.8C12,2.2,9.8,0,7.2,0C7.2,0,7.2,0,7.2,0L7.2,0z"/>
</g>
<g>
	<path class="st0" d="M1,12c-0.3,0-0.5-0.1-0.7-0.3c-0.4-0.4-0.4-1,0-1.4L3.6,7C4,6.6,4.6,6.6,5,7s0.4,1,0,1.4l-3.3,3.3
		C1.5,11.9,1.3,12,1,12z"/>
</g>
</svg>
