<?xml version="1.0" encoding="utf-8"?>
<!-- Generator: Adobe Illustrator 19.2.1, SVG Export Plug-In . SVG Version: 6.00 Build 0)  -->
<svg version="1.1" id="Layer_1" xmlns="http://www.w3.org/2000/svg" xmlns:xlink="http://www.w3.org/1999/xlink" x="0px" y="0px"
	 viewBox="0 0 23 17" style="enable-background:new 0 0 23 17;" xml:space="preserve">
<g>
	<path d="M15.5,15h-13C1.1,15,0,13.9,0,12.5v-4C0,7.7,0.7,7,1.5,7H21c0.4,0,0.8,0.2,1,0.5s0.3,0.8,0.1,1.3l-2.2,4
		C18.8,14.2,17.2,15,15.5,15z"/>
</g>
<g>
	<path d="M2.5,17C2.2,17,2,16.8,2,16.5S2.2,16,2.5,16C2.7,16,3,15.5,3,14.6c0-0.3,0.2-0.5,0.5-0.5S4,14.3,4,14.6
		C4,16.4,3.2,17,2.5,17z"/>
</g>
<g>
	<path d="M17,17c-0.7,0-1.5-0.6-1.5-2.4c0-0.3,0.2-0.5,0.5-0.5c0.3,0,0.5,0.2,0.5,0.5c0,0.9,0.3,1.4,0.5,1.4c0.3,0,0.5,0.2,0.5,0.5
		S17.2,17,17,17z"/>
</g>
<g>
	<path d="M6.7,1.8C6.3,0.7,5.2,0,4,0C2.3,0,1,1.3,1,3v4.5C1,7.8,1.2,8,1.5,8S2,7.8,2,7.5V3c0-1.1,0.9-2,2-2c0.9,0,1.6,0.6,1.9,1.4
		C6.1,2.1,6.4,1.9,6.7,1.8z"/>
</g>
<g>
	<path d="M5.5,4.7c-0.2,0-0.3,0-0.5-0.1C4.9,4.5,4.7,4.3,4.7,4.1C4.5,3,5,1.9,5.9,1.3C6.9,0.7,8.2,1,9,1.9L9.1,2
		c0.1,0.2,0.1,0.5,0,0.7c0,0.2-0.2,0.4-0.4,0.5L5.9,4.6C5.8,4.7,5.7,4.7,5.5,4.7z M7.1,2C6.9,2,6.7,2,6.5,2.1
		c-0.6,0.4-0.9,1-0.8,1.6l2.5-1.3C7.9,2.1,7.5,2,7.1,2z M8.3,2.4L8.3,2.4L8.3,2.4z"/>
</g>
</svg>
