<?xml version="1.0" encoding="utf-8"?>
<!-- Generator: Adobe Illustrator 19.2.1, SVG Export Plug-In . SVG Version: 6.00 Build 0)  -->
<svg version="1.1" id="Layer_1" xmlns="http://www.w3.org/2000/svg" xmlns:xlink="http://www.w3.org/1999/xlink" x="0px" y="0px"
	 viewBox="0 0 23 17" style="enable-background:new 0 0 23 17;" xml:space="preserve">
<path d="M22,2v1l-2,0.7V3h-1v1v1v1H8.5c-0.4,0-0.7,0.1-1,0.4C7.2,6.1,6.9,6,6.5,6H4V3V2V1H3v0.8L1,1.2V0H0v1v1v6v3v6h1v-6h2v5h1v-5
	h15v5h1v-5h2v6h1v-6V8V2H22z M1,2.2l2,0.5V6C2.4,6.3,2,6.8,2,7.5C2,7.7,2,7.8,2.1,8H1V2.2z M20.9,8C21,7.8,21,7.7,21,7.5
	c0-0.7-0.4-1.2-1-1.4V4.7L22,4v4H20.9z"/>
</svg>
